<?xml version="1.0" encoding="UTF-8" standalone="no"?>
<!-- Created with Inkscape (http://www.inkscape.org/) -->

<svg
   xmlns:dc="http://purl.org/dc/elements/1.1/"
   xmlns:cc="http://creativecommons.org/ns#"
   xmlns:rdf="http://www.w3.org/1999/02/22-rdf-syntax-ns#"
   xmlns:svg="http://www.w3.org/2000/svg"
   xmlns="http://www.w3.org/2000/svg"
   xmlns:sodipodi="http://sodipodi.sourceforge.net/DTD/sodipodi-0.dtd"
   xmlns:inkscape="http://www.inkscape.org/namespaces/inkscape"
   id="svg2"
   version="1.1"
   inkscape:version="0.91 r13725"
   xml:space="preserve"
   width="241.11902"
   height="241.11914"
   viewBox="0 0 241.11902 241.11914"
   sodipodi:docname="egonet.svg"><metadata
     id="metadata8"><rdf:RDF><cc:Work
         rdf:about=""><dc:format>image/svg+xml</dc:format><dc:type
           rdf:resource="http://purl.org/dc/dcmitype/StillImage" /><dc:title></dc:title></cc:Work></rdf:RDF></metadata><defs
     id="defs6" /><sodipodi:namedview
     pagecolor="#ffffff"
     bordercolor="#666666"
     borderopacity="1"
     objecttolerance="10"
     gridtolerance="10"
     guidetolerance="10"
     inkscape:pageopacity="0"
     inkscape:pageshadow="2"
     inkscape:window-width="1920"
     inkscape:window-height="1056"
     id="namedview4"
     showgrid="false"
     fit-margin-top="0"
     fit-margin-left="0"
     fit-margin-right="0"
     fit-margin-bottom="0"
     inkscape:zoom="2"
     inkscape:cx="15.523923"
     inkscape:cy="52.874554"
     inkscape:window-x="0"
     inkscape:window-y="24"
     inkscape:window-maximized="1"
     inkscape:current-layer="g12" /><g
     id="g10"
     inkscape:groupmode="layer"
     inkscape:label="ink_ext_XXXXXX"
     transform="matrix(1.25,0,0,-1.25,-171.95956,223.97107)"><g
       id="g12"
       transform="scale(0.1,0.1)"><path
         d="m 3297.15,904.289 c 0,-486.019 -393.99,-879.9999 -880,-879.9999 -486.02,0 -880,393.9809 -880,879.9999 0,486.011 393.98,880.001 880,880.001 486.01,0 880,-393.99 880,-880.001 z"
         style="fill:none;fill-opacity:1;fill-rule:nonzero;stroke:none"
         id="path14"
         inkscape:connector-curvature="0" /><path
         d="m 3296.6286,827.29143 c 0,-528.24869 -428.2296,-956.47596 -956.4761,-956.47596 -528.2574,0 -956.476,428.22727 -956.476,956.47596 0,528.25847 428.2186,956.47717 956.476,956.47717 528.2465,0 956.4761,-428.2187 956.4761,-956.47717 z"
         style="fill:#ffffff;fill-opacity:1;stroke:#000000;stroke-width:16;stroke-linecap:butt;stroke-linejoin:miter;stroke-miterlimit:4;stroke-dasharray:none;stroke-opacity:1"
         id="path16"
         inkscape:connector-curvature="0" /><path
         d="m 3097.15,904.289 c 0,-375.551 -304.45,-680 -680,-680 -375.55,0 -680,304.449 -680,680 0,375.551 304.45,680.001 680,680.001 375.55,0 680,-304.45 680,-680.001 z"
         style="fill:none;fill-opacity:1;fill-rule:nonzero;stroke:none"
         id="path18"
         inkscape:connector-curvature="0" /><path
         d="m 3096.5264,832.99493 c 0,-414.58092 -336.0906,-750.670411 -750.6704,-750.670411 -414.5798,0 -750.6704,336.089491 -750.6704,750.670411 0,414.58087 336.0906,750.67147 750.6704,750.67147 414.5798,0 750.6704,-336.0906 750.6704,-750.67147 z"
         style="fill:none;stroke:#000000;stroke-width:16;stroke-linecap:butt;stroke-linejoin:miter;stroke-miterlimit:4;stroke-dasharray:none;stroke-opacity:1"
         id="path20"
         inkscape:connector-curvature="0" /><path
         d="m 2895.86,904.289 c 0,-264.379 -214.34,-478.707 -478.71,-478.707 -264.38,0 -478.71,214.328 -478.71,478.707 0,264.371 214.33,478.711 478.71,478.711 264.37,0 478.71,-214.34 478.71,-478.711 z"
         style="fill:none;fill-opacity:1;fill-rule:nonzero;stroke:none"
         id="path22"
         inkscape:connector-curvature="0" /><path
         d="m 2895.0128,835.84679 c 0,-301.70074 -244.6053,-546.306 -546.3049,-546.306 -301.711,0 -546.3048,244.60526 -546.3048,546.306 0,301.71211 244.5938,546.30601 546.3048,546.30601 301.6996,0 546.3049,-244.5939 546.3049,-546.30601 z"
         style="fill:none;stroke:#000000;stroke-width:16;stroke-linecap:butt;stroke-linejoin:miter;stroke-miterlimit:4;stroke-dasharray:none;stroke-opacity:1"
         id="path24"
         inkscape:connector-curvature="0" /><path
         d="m 2697.15,904.289 c 0,-154.648 -125.35,-280 -280,-280 -154.65,0 -280,125.352 -280,280 0,154.651 125.35,280.001 280,280.001 154.65,0 280,-125.35 280,-280.001 z"
         style="fill:none;fill-opacity:1;fill-rule:nonzero;stroke:none"
         id="path26"
         inkscape:connector-curvature="0" /><path
         d="m 2712.6319,815.8842 c 0,-196.28037 -159.091,-355.36884 -355.3688,-355.36884 -196.2779,0 -355.3689,159.08847 -355.3689,355.36884 0,196.2791 159.091,355.3701 355.3689,355.3701 196.2778,0 355.3688,-159.091 355.3688,-355.3701 z"
         style="fill:none;stroke:#000000;stroke-width:16.38558388;stroke-linecap:butt;stroke-linejoin:miter;stroke-miterlimit:4;stroke-dasharray:none;stroke-opacity:1"
         id="path28"
         inkscape:connector-curvature="0" /><g
         id="g38"
         transform="scale(10,10)"><text
           transform="matrix(1,0,0,-1,19.677,154.559)"
           style="font-variant:normal;font-weight:normal;font-size:14px;font-family:'Liberation Sans';-inkscape-font-specification:LiberationSans;writing-mode:lr-tb;fill:#000000;fill-opacity:1;fill-rule:nonzero;stroke:none"
           id="text40"><tspan
             x="0"
             sodipodi:role="line"
             id="tspan48"
             y="0" /></text>
</g><path
         d="m 1926.8936,1300.2518 c 0,-20.621 -16.72,-37.301 -37.35,-37.301 -20.58,0 -37.3,16.68 -37.3,37.301 0,20.629 16.72,37.348 37.3,37.348 20.63,0 37.35,-16.719 37.35,-37.348 z"
         style="fill:#4f7eaa;fill-opacity:1;stroke:#000000;stroke-width:8;stroke-linecap:butt;stroke-linejoin:miter;stroke-miterlimit:4;stroke-dasharray:none;stroke-opacity:1"
         id="path100"
         inkscape:connector-curvature="0" /><text
         xml:space="preserve"
         style="font-style:normal;font-weight:normal;font-size:320px;line-height:125%;font-family:sans-serif;letter-spacing:0px;word-spacing:0px;fill:#000000;fill-opacity:1;stroke:none;stroke-width:1px;stroke-linecap:butt;stroke-linejoin:miter;stroke-opacity:1"
         x="313.69345"
         y="-1500.0251"
         id="text3596"
         sodipodi:linespacing="125%"
         transform="scale(1,-1)"><tspan
           sodipodi:role="line"
           id="tspan3598"
           x="313.69345"
           y="-1500.0251" /></text>
<path
         d="m 2539.8561,821.30599 c 0,-99.25923 -80.4524,-179.71052 -179.7103,-179.71052 -99.2581,0 -179.7106,80.45129 -179.7106,179.71052 0,99.25858 80.4525,179.71111 179.7106,179.71111 99.2579,0 179.7103,-80.45253 179.7103,-179.71111 z"
         style="fill:none;stroke:#000000;stroke-width:15.08127308;stroke-linecap:butt;stroke-linejoin:miter;stroke-miterlimit:4;stroke-dasharray:none;stroke-opacity:1"
         id="path28-2"
         inkscape:connector-curvature="0" /><text
         xml:space="preserve"
         style="font-style:normal;font-weight:normal;font-size:320px;line-height:125%;font-family:sans-serif;letter-spacing:0px;word-spacing:0px;fill:#000000;fill-opacity:1;stroke:none;stroke-width:1px;stroke-linecap:butt;stroke-linejoin:miter;stroke-opacity:1"
         x="2275.7034"
         y="-701.53271"
         id="text4556"
         sodipodi:linespacing="125%"
         transform="scale(1,-1)"><tspan
           sodipodi:role="line"
           id="tspan4558"
           x="2275.7034"
           y="-701.53271"
           style="font-size:100px">1.5</tspan></text>
<text
         xml:space="preserve"
         style="font-style:normal;font-weight:normal;font-size:320px;line-height:125%;font-family:sans-serif;letter-spacing:0px;word-spacing:0px;fill:#000000;fill-opacity:1;stroke:none;stroke-width:1px;stroke-linecap:butt;stroke-linejoin:miter;stroke-opacity:1"
         x="2326.196"
         y="-528.90607"
         id="text4556-1"
         sodipodi:linespacing="125%"
         transform="scale(1,-1)"><tspan
           sodipodi:role="line"
           id="tspan4558-4"
           x="2326.196"
           y="-528.90607"
           style="font-size:100px">5</tspan></text>
<text
         xml:space="preserve"
         style="font-style:normal;font-weight:normal;font-size:320px;line-height:125%;font-family:sans-serif;letter-spacing:0px;word-spacing:0px;fill:#000000;fill-opacity:1;stroke:none;stroke-width:1px;stroke-linecap:butt;stroke-linejoin:miter;stroke-opacity:1"
         x="2291.9751"
         y="-340.68997"
         id="text4556-9"
         sodipodi:linespacing="125%"
         transform="scale(1,-1)"><tspan
           sodipodi:role="line"
           id="tspan4558-7"
           x="2291.9751"
           y="-340.68997"
           style="font-size:100px">15</tspan></text>
<text
         xml:space="preserve"
         style="font-style:normal;font-weight:normal;font-size:320px;line-height:125%;font-family:sans-serif;letter-spacing:0px;word-spacing:0px;fill:#000000;fill-opacity:1;stroke:none;stroke-width:1px;stroke-linecap:butt;stroke-linejoin:miter;stroke-opacity:1"
         x="2291.9746"
         y="-152.47391"
         id="text4556-5"
         sodipodi:linespacing="125%"
         transform="scale(1,-1)"><tspan
           sodipodi:role="line"
           id="tspan4558-3"
           x="2291.9746"
           y="-152.47391"
           style="font-size:100px">50</tspan></text>
<text
         xml:space="preserve"
         style="font-style:normal;font-weight:normal;font-size:320px;line-height:125%;font-family:sans-serif;letter-spacing:0px;word-spacing:0px;fill:#000000;fill-opacity:1;stroke:none;stroke-width:1px;stroke-linecap:butt;stroke-linejoin:miter;stroke-opacity:1"
         x="2263.4573"
         y="58.556259"
         id="text4556-50"
         sodipodi:linespacing="125%"
         transform="scale(1,-1)"><tspan
           sodipodi:role="line"
           id="tspan4558-2"
           x="2263.4573"
           y="58.556259"
           style="font-size:100px">150</tspan></text>
<path
         style="fill:none;fill-rule:evenodd;stroke:#008500;stroke-width:8;stroke-linecap:butt;stroke-linejoin:miter;stroke-miterlimit:4;stroke-dasharray:8, 8;stroke-dashoffset:0;stroke-opacity:1"
         d="m 2095.6765,1638.8155 260,-788.00002"
         id="path4429"
         inkscape:connector-curvature="0" /><path
         d="m 2137.0215,1634.7899 c 0,-20.578 -16.72,-37.301 -37.34,-37.301 -20.63,0 -37.35,16.723 -37.35,37.301 0,20.629 16.72,37.352 37.35,37.352 20.62,0 37.34,-16.723 37.34,-37.352 z"
         style="fill:#4f7eaa;fill-opacity:1;stroke:#000000;stroke-width:8;stroke-linecap:butt;stroke-linejoin:miter;stroke-miterlimit:4;stroke-dasharray:none;stroke-opacity:1"
         id="path156-65"
         inkscape:connector-curvature="0"
         inkscape:transform-center-x="-9.2682161"
         inkscape:transform-center-y="3.5646985" /><path
         style="fill:none;fill-rule:evenodd;stroke:#008500;stroke-width:8;stroke-linecap:butt;stroke-linejoin:miter;stroke-miterlimit:4;stroke-dasharray:8, 8;stroke-dashoffset:0;stroke-opacity:1"
         d="m 1891.6765,1294.8155 468,-432.00002"
         id="path4431"
         inkscape:connector-curvature="0" /><path
         style="fill:none;fill-rule:evenodd;stroke:#008500;stroke-width:8;stroke-linecap:butt;stroke-linejoin:miter;stroke-miterlimit:4;stroke-dasharray:8, 8;stroke-dashoffset:0;stroke-opacity:1"
         d="m 2363.6765,862.81548 112,392.00002"
         id="path4433"
         inkscape:connector-curvature="0" /><path
         style="fill:none;fill-rule:evenodd;stroke:#008500;stroke-width:8;stroke-linecap:butt;stroke-linejoin:miter;stroke-miterlimit:4;stroke-dasharray:8, 8;stroke-dashoffset:0;stroke-opacity:1"
         d="m 2351.6765,858.81548 376,-236"
         id="path4437"
         inkscape:connector-curvature="0" /><path
         style="fill:none;fill-rule:evenodd;stroke:#008500;stroke-width:8;stroke-linecap:butt;stroke-linejoin:miter;stroke-miterlimit:4;stroke-dasharray:8, 8;stroke-dashoffset:0;stroke-opacity:1"
         d="m 2351.6765,874.81548 844,-24"
         id="path4439"
         inkscape:connector-curvature="0" /><path
         style="fill:none;fill-rule:evenodd;stroke:#008500;stroke-width:8;stroke-linecap:butt;stroke-linejoin:miter;stroke-miterlimit:4;stroke-dasharray:8, 8;stroke-dashoffset:0;stroke-opacity:1"
         d="m 1483.6765,746.81548 868,112"
         id="path4441"
         inkscape:connector-curvature="0" /><path
         style="fill:none;fill-rule:evenodd;stroke:#008500;stroke-width:8;stroke-linecap:butt;stroke-linejoin:miter;stroke-miterlimit:4;stroke-dasharray:8, 8;stroke-dashoffset:0;stroke-opacity:1"
         d="m 3087.6765,1234.8155 -728,-368.00002"
         id="path4443"
         inkscape:connector-curvature="0" /><path
         style="fill:none;fill-rule:evenodd;stroke:#008500;stroke-width:8;stroke-linecap:butt;stroke-linejoin:miter;stroke-miterlimit:4;stroke-dasharray:8, 8;stroke-dashoffset:0;stroke-opacity:1"
         d="m 1783.6765,526.81548 568,340"
         id="path4445"
         inkscape:connector-curvature="0" /><path
         d="m 1517.0215,738.78994 c 0,-20.578 -16.72,-37.301 -37.34,-37.301 -20.63,0 -37.35,16.723 -37.35,37.301 0,20.62899 16.72,37.352 37.35,37.352 20.62,0 37.34,-16.723 37.34,-37.352 z"
         style="fill:#4f7eaa;fill-opacity:1;stroke:#000000;stroke-width:8;stroke-linecap:butt;stroke-linejoin:miter;stroke-miterlimit:4;stroke-dasharray:none;stroke-opacity:1"
         id="path156-5"
         inkscape:connector-curvature="0"
         inkscape:transform-center-x="-9.2682161"
         inkscape:transform-center-y="3.5646985" /><path
         d="m 1820.8766,521.39419 c 0,-20.578 -16.72,-37.301 -37.34,-37.301 -20.63,0 -37.35,16.723 -37.35,37.301 0,20.629 16.72,37.352 37.35,37.352 20.62,0 37.34,-16.723 37.34,-37.352 z"
         style="fill:#4f7eaa;fill-opacity:1;stroke:#000000;stroke-width:8;stroke-linecap:butt;stroke-linejoin:miter;stroke-miterlimit:4;stroke-dasharray:none;stroke-opacity:1"
         id="path156"
         inkscape:connector-curvature="0"
         inkscape:transform-center-x="-9.2682161"
         inkscape:transform-center-y="3.5646985" /><path
         d="m 2765.0215,618.78994 c 0,-20.578 -16.72,-37.301 -37.34,-37.301 -20.63,0 -37.35,16.723 -37.35,37.301 0,20.62899 16.72,37.352 37.35,37.352 20.62,0 37.34,-16.723 37.34,-37.352 z"
         style="fill:#4f7eaa;fill-opacity:1;stroke:#000000;stroke-width:8;stroke-linecap:butt;stroke-linejoin:miter;stroke-miterlimit:4;stroke-dasharray:none;stroke-opacity:1"
         id="path156-6"
         inkscape:connector-curvature="0"
         inkscape:transform-center-x="-9.2682161"
         inkscape:transform-center-y="3.5646985" /><path
         d="m 3225.0215,846.7899 c 0,-20.578 -16.72,-37.301 -37.34,-37.301 -20.63,0 -37.35,16.723 -37.35,37.301 0,20.629 16.72,37.352 37.35,37.352 20.62,0 37.34,-16.723 37.34,-37.352 z"
         style="fill:#4f7eaa;fill-opacity:1;stroke:#000000;stroke-width:8;stroke-linecap:butt;stroke-linejoin:miter;stroke-miterlimit:4;stroke-dasharray:none;stroke-opacity:1"
         id="path156-0"
         inkscape:connector-curvature="0"
         inkscape:transform-center-x="-9.2682161"
         inkscape:transform-center-y="3.5646985" /><path
         d="m 3125.0215,1238.7899 c 0,-20.578 -16.72,-37.301 -37.34,-37.301 -20.63,0 -37.35,16.723 -37.35,37.301 0,20.629 16.72,37.352 37.35,37.352 20.62,0 37.34,-16.723 37.34,-37.352 z"
         style="fill:#4f7eaa;fill-opacity:1;stroke:#000000;stroke-width:8;stroke-linecap:butt;stroke-linejoin:miter;stroke-miterlimit:4;stroke-dasharray:none;stroke-opacity:1"
         id="path156-2"
         inkscape:connector-curvature="0"
         inkscape:transform-center-x="-9.2682161"
         inkscape:transform-center-y="3.5646985" /><path
         d="m 2516.88,1256.1177 c 0,-20.59 -16.72,-37.313 -37.34,-37.313 -20.63,0 -37.34,16.723 -37.34,37.313 0,20.617 16.71,37.34 37.34,37.34 20.62,0 37.34,-16.723 37.34,-37.34 z"
         style="fill:#4f7eaa;fill-opacity:1;stroke:#000000;stroke-width:8;stroke-linecap:butt;stroke-linejoin:miter;stroke-miterlimit:4;stroke-dasharray:none;stroke-opacity:1"
         id="path112"
         inkscape:connector-curvature="0" /><path
         d="m 2412.3801,857.39886 c 0,-30.148 -24.41,-54.57 -54.57,-54.57 -30.11,0 -54.53,24.422 -54.53,54.57 0,30.121 24.42,54.532 54.53,54.532 30.16,0 54.57,-24.411 54.57,-54.532 z"
         style="fill:#ff4545;fill-opacity:1;stroke:#000000;stroke-width:8;stroke-linecap:butt;stroke-linejoin:miter;stroke-miterlimit:4;stroke-dasharray:none;stroke-opacity:1"
         id="path92"
         inkscape:connector-curvature="0" /></g></g></svg>