<?xml version="1.0" encoding="UTF-8" standalone="no"?>
<!-- Created with Inkscape (http://www.inkscape.org/) -->

<svg
   xmlns:dc="http://purl.org/dc/elements/1.1/"
   xmlns:cc="http://creativecommons.org/ns#"
   xmlns:rdf="http://www.w3.org/1999/02/22-rdf-syntax-ns#"
   xmlns:svg="http://www.w3.org/2000/svg"
   xmlns="http://www.w3.org/2000/svg"
   xmlns:sodipodi="http://sodipodi.sourceforge.net/DTD/sodipodi-0.dtd"
   xmlns:inkscape="http://www.inkscape.org/namespaces/inkscape"
   width="210mm"
   height="210mm"
   viewBox="0 0 744.09449 744.09448"
   id="svg2"
   version="1.1"
   inkscape:version="0.91 r13725"
   sodipodi:docname="icon.svg">
  <defs
     id="defs4" />
  <sodipodi:namedview
     id="base"
     pagecolor="#ffffff"
     bordercolor="#666666"
     borderopacity="1.0"
     inkscape:pageopacity="0.0"
     inkscape:pageshadow="2"
     inkscape:zoom="0.7"
     inkscape:cx="47.474691"
     inkscape:cy="530.20288"
     inkscape:document-units="px"
     inkscape:current-layer="layer1"
     showgrid="false"
     inkscape:window-width="1920"
     inkscape:window-height="1056"
     inkscape:window-x="0"
     inkscape:window-y="24"
     inkscape:window-maximized="1" />
  <metadata
     id="metadata7">
    <rdf:RDF>
      <cc:Work
         rdf:about="">
        <dc:format>image/svg+xml</dc:format>
        <dc:type
           rdf:resource="http://purl.org/dc/dcmitype/StillImage" />
        <dc:title />
      </cc:Work>
    </rdf:RDF>
  </metadata>
  <g
     inkscape:label="Layer 1"
     inkscape:groupmode="layer"
     id="layer1"
     transform="translate(0,-308.26772)">
    <path
       style="opacity:1;fill:#007ed6;fill-opacity:1;stroke:none;stroke-width:2;stroke-miterlimit:4;stroke-dasharray:none;stroke-opacity:1"
       d="M 707.12305 -0.041015625 C 707.1234 -0.031115625 707.12279 -0.02171875 707.12305 -0.01171875 A 37.880722 37.880722 0 0 1 709.33594 0.1171875 L 744.1875 0.1171875 L 744.1875 -0.041015625 L 707.12305 -0.041015625 z M 744.1875 0.1171875 L 744.1875 37.839844 L 744.1875 38.289062 C 744.1815 38.288063 744.17582 38.286156 744.16992 38.285156 A 37.880722 37.880722 0 0 0 744.1875 37.839844 A 37.880722 37.880722 0 0 0 709.33594 0.1171875 L 0 0.1171875 L 0 0.12890625 L 37.044922 0.12890625 C 37.044572 0.13880625 37.045182 0.14820313 37.044922 0.15820312 A 37.880722 37.880722 0 0 0 0 37.623047 L 0 744.09375 L 0.099609375 744.09375 L 0.099609375 706.23828 A 37.880722 37.880722 0 0 0 37.164062 744.08984 C 37.164097 744.09118 37.164054 744.09245 37.164062 744.09375 L 709.71094 744.09375 A 37.880722 37.880722 0 0 0 744.1875 706.41602 L 744.1875 744.09375 L 744.28516 744.09375 L 744.28516 0.1171875 L 744.1875 0.1171875 z M 744.1875 744.09375 L 709.71094 744.09375 A 37.880722 37.880722 0 0 1 707.12305 744.26758 C 707.12279 744.27758 707.1234 744.28688 707.12305 744.29688 L 744.1875 744.29688 L 744.1875 744.09375 z M 37.164062 744.09375 L 0.099609375 744.09375 L 0.099609375 744.11914 L 37.164062 744.11914 C 37.163759 744.11047 37.164115 744.10222 37.164062 744.09375 z M 0 37.623047 L 0 0.12890625 L -0.01953125 0.12890625 L -0.01953125 38.009766 A 37.880722 37.880722 0 0 1 0 37.623047 z M -0.01953125 38.009766 L -0.01953125 38.458984 C -0.01353125 38.457984 -0.007853125 38.456078 -0.001953125 38.455078 A 37.880722 37.880722 0 0 1 -0.01953125 38.009766 z M 675.09961 59.283203 A 37.880722 37.880722 0 0 0 675.10938 59.296875 C 675.10738 59.297875 675.10552 59.299781 675.10352 59.300781 C 675.10252 59.295781 675.10061 59.288003 675.09961 59.283203 z M 69.068359 59.453125 C 69.067359 59.457925 69.065453 59.465703 69.064453 59.470703 C 69.062453 59.469703 69.060594 59.467797 69.058594 59.466797 A 37.880722 37.880722 0 0 0 69.068359 59.453125 z M 69.177734 684.78125 L 69.183594 684.78125 C 69.184253 684.78784 69.184592 684.78988 69.185547 684.79297 A 37.880722 37.880722 0 0 0 69.177734 684.78125 z M 675.10352 684.95898 C 675.10552 684.95898 675.10738 684.95798 675.10938 684.95898 A 37.880722 37.880722 0 0 0 675.10156 684.9707 C 675.10245 684.96781 675.10292 684.96495 675.10352 684.95898 z M 0.099609375 705.78906 L 0.1171875 705.78906 A 37.880722 37.880722 0 0 0 0.099609375 706.23438 L 0.099609375 705.78906 z M 744.16992 705.9668 C 744.17582 705.9668 744.1815 705.9678 744.1875 705.9668 L 744.1875 706.41211 A 37.880722 37.880722 0 0 0 744.16992 705.9668 z "
       transform="translate(0,308.26772)"
       id="rect4251" />
    <path
       style="font-style:normal;font-variant:normal;font-weight:normal;font-stretch:normal;font-size:875px;line-height:125%;font-family:cmsy10;-inkscape-font-specification:cmsy10;text-align:center;letter-spacing:0px;word-spacing:0px;text-anchor:middle;fill:#ffffff;fill-opacity:1;stroke:#ffffff;stroke-width:16;stroke-linecap:butt;stroke-linejoin:miter;stroke-miterlimit:4;stroke-dasharray:none;stroke-opacity:0.685"
       d="m 493.04464,362.56236 c -25.63477,0 -54.11784,5.12695 -85.44922,15.38086 -31.04655,10.25391 -60.38314,24.63639 -88.01172,43.15039 -27.62858,18.514 -49.98828,40.02014 -67.07812,64.51563 -17.08985,24.49544 -25.63477,50.84082 -25.63477,79.03906 0,23.64095 7.11979,43.5791 21.36133,59.81445 14.52637,16.23535 33.611,29.05371 57.25195,38.45313 -27.34375,13.67187 -55.11425,32.4707 -83.3125,56.39648 -27.91341,23.64095 -51.12859,50.55794 -69.64257,80.75 -18.22917,29.90723 -27.34372,59.95638 -27.34376,90.14844 0,23.35612 7.12175,43.29427 21.36329,59.81445 14.52636,16.23535 33.03938,28.34115 55.54101,36.31641 22.50163,8.26009 45.00423,12.38867 67.50586,12.38867 l 5.55469,0 c 31.61621,0 63.94401,-6.69304 96.98437,-20.08008 33.04037,-13.38704 63.51628,-31.18945 91.42969,-53.40625 27.91341,-22.50163 51.12858,-47.28092 69.64258,-74.33984 2.27865,-4.55729 3.41797,-7.83235 3.41797,-9.82618 0,-2.56347 -1.99479,-4.84212 -5.98242,-6.83593 l -4.69922,0 c -16.80502,1.42415 -30.05013,6.2653 -39.73438,14.52539 -9.39941,7.97526 -22.78548,21.79004 -40.16015,41.44336 -17.37468,19.65332 -34.18067,34.03776 -50.41602,43.15234 -15.95052,9.11458 -36.88509,13.67188 -62.80469,13.67188 -20.50781,0 -40.73177,-3.41797 -60.66992,-10.25391 -19.65332,-6.83594 -36.0306,-17.37565 -49.13281,-31.61719 -13.10221,-14.52636 -19.65231,-32.32877 -19.65235,-53.40625 1e-5,-19.93815 5.69662,-41.01562 17.08985,-63.23242 11.39323,-22.2168 25.20604,-42.01204 41.44141,-59.38672 36.74315,-35.03418 80.46614,-52.55078 131.16601,-52.55078 10.53874,-1.13932 24.21061,-6.55208 41.01563,-16.23633 17.08984,-9.68424 25.63476,-19.08268 25.63476,-28.19726 0,-2.56348 -2.13769,-4.84213 -6.41016,-6.83594 -36.45832,0 -70.35221,-7.97526 -101.68359,-23.92578 -31.33138,-15.95052 -46.99805,-40.73177 -46.99805,-74.3418 0,-23.07129 5.98243,-43.00944 17.94532,-59.81445 12.24772,-17.08985 28.48209,-30.19206 48.70508,-39.30664 20.22298,-9.11459 41.44335,-13.67188 63.66015,-13.67188 21.07748,0 39.7334,3.27702 55.96875,9.82813 16.52018,6.26627 24.78125,18.08623 24.78125,35.46094 0,3.98763 -0.56966,7.97526 -1.70898,11.96289 -1.13933,3.7028 -2.70541,7.54752 -4.69922,11.53515 -1.70899,3.98763 -3.98763,8.54492 -6.83594,13.67188 -0.56966,1.13932 -0.85547,2.56445 -0.85547,4.27343 0,1.70899 0.71257,3.13217 2.13672,4.27149 1.42415,1.13932 2.70638,1.99479 3.8457,2.56445 l 4.69922,0 c 13.67188,-1.13932 26.77409,-5.83952 39.30664,-14.09961 12.53256,-8.54492 22.64356,-19.22558 30.33399,-32.04297 7.69043,-12.81738 11.53515,-26.3483 11.53515,-40.58984 0,-21.3623 -9.68424,-36.45736 -29.05273,-45.28711 -19.08366,-8.82975 -41.15755,-13.24414 -66.22266,-13.24414 l -5.12695,0 z M 853.5212,1755.3671 c -0.42769,0.6773 -0.85601,1.2391 -1.29687,1.7441 0.27143,0.6124 0.54803,1.2199 0.83008,1.8203 0.31951,-1.0232 0.36455,-2.1459 0.46679,-3.5644 z"
       id="text4254"
       inkscape:connector-curvature="0" />
  </g>
</svg>
